# xmcd
# 
# Track frame offsets:
#     150
#     9637
#     24510
#     35830
#     49572
#     61261
#     74400
#     91145
#     108770
#     122435
#     133354
# 
# Disc length: 1948
# 
# Revision: 2
# Processed by: cddbd v1.5.2PL0 Copyright (c) Steve Scherf et al.
# Submitted via: fre:ac v1.0.17
# 
DISCID=8f079a0b
DTITLE=Duke Ellington - Ellington '65
DYEAR=1965
DGENRE=Jazz
TTITLE0=Hello, Dolly!
TTITLE1=Call Me Irresponsible
TTITLE2=Fly Me To The Moon
TTITLE3=So Little Time
TTITLE4=Danke Schoen
TTITLE5=More (Theme from Mondo Cane)
TTITLE6=The Second Time Around
TTITLE7=Never On Sunday
TTITLE8=I Left My Heart In San Francisco
TTITLE9=Blowin' In The Wind
TTITLE10=Stranger On The Shore
EXTD=
EXTT0=
EXTT1=
EXTT2=
EXTT3=
EXTT4=
EXTT5=
EXTT6=
EXTT7=
EXTT8=
EXTT9=
EXTT10=
PLAYORDER=
